<svg id="logosandtypes_com" xmlns="http://www.w3.org/2000/svg" viewBox="0 0 150 150.2"><style>.st1{fill:#0a4c89}</style><g id="Layer_2"><path id="Layer_3" d="M0 .2h150v150H0V.2z" fill="none"/></g><g id="baker_books"><path class="st1" d="M138.3 95.7c8.3-9.8 6.6-26.5-2.9-33.9l-49.8-39c-4.5-3.5-9-6.9-13.6-10.4-1.1-.9-2.7-.8-3.8.1l-59 49.3c19.1-14.3 39-27.7 58.4-42.3 4.9 7.2 7.3 14.5 6.4 22.4-1 9.4-4 17.6-13.6 22.5C45.7 71.8 11.6 90.9 9.5 93c20.1-8.8 40.7-16.5 60.7-25.2l68.1 27.9z"/><path class="st1" d="M135.9 98c-20.7-7.9-41.4-15.9-62.1-23.9-2.3-1-4.9-.9-7.2.1-18.1 7.5-38.1 15.7-56.2 23.1 19-6.3 37.2-11 55.9-17.1.6.5 1.2 1.1 1.7 1.7 7.5 10.3 8.1 26 1.4 36.8-1.4 2.2-3.2 3.1-5.8 3.4-16.8 1.9-37 5.8-53.8 7.6h129.6c5.4-9.2 5.4-18.7.8-28.1-.9-1.9-2.5-2.9-4.3-3.6z"/></g></svg>