<?xml version="1.0" encoding="UTF-8" standalone="no"?>
<svg
   xmlns:dc="http://purl.org/dc/elements/1.1/"
   xmlns:cc="http://creativecommons.org/ns#"
   xmlns:rdf="http://www.w3.org/1999/02/22-rdf-syntax-ns#"
   xmlns:svg="http://www.w3.org/2000/svg"
   xmlns="http://www.w3.org/2000/svg"
   xmlns:sodipodi="http://sodipodi.sourceforge.net/DTD/sodipodi-0.dtd"
   xmlns:inkscape="http://www.inkscape.org/namespaces/inkscape"
   version="1.0"
   width="160"
   height="240"
   viewBox="0 0 640 960"
   xml:space="preserve"
   id="svg3777"
   sodipodi:docname="833_1.svg"
   inkscape:version="0.92.5 (2060ec1f9f, 2020-04-08)"><metadata
     id="metadata3783"><rdf:RDF><cc:Work
         rdf:about=""><dc:format>image/svg+xml</dc:format><dc:type
           rdf:resource="http://purl.org/dc/dcmitype/StillImage" /><dc:title></dc:title></cc:Work></rdf:RDF></metadata><defs
     id="defs3781" /><sodipodi:namedview
     pagecolor="#ffffff"
     bordercolor="#666666"
     borderopacity="1"
     objecttolerance="10"
     gridtolerance="10"
     guidetolerance="10"
     inkscape:pageopacity="0"
     inkscape:pageshadow="2"
     inkscape:window-width="2508"
     inkscape:window-height="1016"
     id="namedview3779"
     showgrid="false"
     inkscape:zoom="1"
     inkscape:cx="-124"
     inkscape:cy="-18.062053"
     inkscape:window-x="52"
     inkscape:window-y="27"
     inkscape:window-maximized="1"
     inkscape:current-layer="svg3777" /><path
     d="m 322.00682,433.84118 a 49,49 0 0 0 -50,48 51,51 0 0 0 50,52.2 53,53 0 0 0 54,-52 c -0.7,-48 -45,-55.7 -45,-55.7 0,0 45.3,3.8 49,55.6 0.8,32 -24.8,59.5 -58,60.2 -33,0.8 -61.4,-25.7 -62,-60 -1.1,-34.5 26.4,-63.7 61.9,-64.3 0,0 8.5,0 8.7,8.4 0,8 -8.6,7.6 -8.6,7.6 z"
     id="path3775"
     inkscape:connector-curvature="0"
     style="fill:#476ef9"><animateTransform
       attributeName="transform"
       type="rotate"
       from="0 320 480"
       to="360 320 480"
       dur="2200ms"
       repeatCount="indefinite" /></path></svg>
